<svg xmlns="http://www.w3.org/2000/svg" width="1024" height="1024" viewBox="0 0 1024 1024">
  <defs>
    <radialGradient id="bg" cx="50%" cy="40%" r="65%">
      <stop offset="0%" stop-color="#1e3a8a" stop-opacity="0.85"/>
      <stop offset="55%" stop-color="#111827" stop-opacity="1"/>
      <stop offset="100%" stop-color="#06080f" stop-opacity="1"/>
    </radialGradient>
    <radialGradient id="glow" cx="50%" cy="55%" r="50%">
      <stop offset="0%" stop-color="#38bdf8" stop-opacity="0.5"/>
      <stop offset="60%" stop-color="#38bdf8" stop-opacity="0.08"/>
      <stop offset="100%" stop-color="#38bdf8" stop-opacity="0"/>
    </radialGradient>
  </defs>

  <rect width="1024" height="1024" fill="url(#bg)"/>

  <g opacity="0.07" fill="#38bdf8">
    <rect x="0" y="0" width="1024" height="2"/>
    <rect x="0" y="80" width="1024" height="2"/>
    <rect x="0" y="160" width="1024" height="2"/>
    <rect x="0" y="240" width="1024" height="2"/>
    <rect x="0" y="320" width="1024" height="2"/>
    <rect x="0" y="400" width="1024" height="2"/>
    <rect x="0" y="480" width="1024" height="2"/>
    <rect x="0" y="560" width="1024" height="2"/>
    <rect x="0" y="640" width="1024" height="2"/>
    <rect x="0" y="720" width="1024" height="2"/>
    <rect x="0" y="800" width="1024" height="2"/>
    <rect x="0" y="880" width="1024" height="2"/>
    <rect x="0" y="960" width="1024" height="2"/>
  </g>

  <circle cx="512" cy="560" r="420" fill="url(#glow)"/>
</svg>
